<?xml version="1.0" encoding="utf-8"?>
<!-- Generator: Adobe Illustrator 21.0.0, SVG Export Plug-In . SVG Version: 6.00 Build 0)  -->
<svg version="1.1" id="Layer_1" xmlns="http://www.w3.org/2000/svg" xmlns:xlink="http://www.w3.org/1999/xlink" x="0px" y="0px"
	 viewBox="0 0 357.4 357.4" style="enable-background:new 0 0 357.4 357.4;" xml:space="preserve">
<style type="text/css">
	.st0{fill:#F25D13;}
	.st1{font-family:'BebasNeue-Regular';}
	.st2{font-size:55.4558px;}
</style>
<path class="st0" d="M267.2,154.5c17.5,28.3,34.7,56.2,51.9,84.1c-18.2,22.7-54.2,19.8-69.1-4.8c-23.7-39-48-77.7-72-116.5
	c-0.9-1.4-1.6-2.9-2.8-4.9c2-0.2,3.5-0.5,5-0.5c15.7,0,31.4,0,47.2,0c12.6,0,21.6-8.3,21.5-19.6s-9.1-19.4-21.7-19.5
	c-10.5-0.1-21,0.2-31.4-0.1c-27-0.8-49.2-23.7-49.4-51.1c1.5-0.2,3.1-0.5,4.6-0.5c27.3,0,54.5-0.4,81.8,0.1s49.2,11.3,62.4,36.3
	c15.6,29.5,8.4,69.5-15.8,89.1C275.8,149.3,271.7,151.5,267.2,154.5z"/>
<path class="st0" d="M219.9,255.7c-15.1-1.1-28.6-1-41.6-3.3c-13.8-2.5-23.9-11-30.3-24.1c-13.7-28.2-27.9-56.3-42-84.4
	c-0.9-1.9-1.9-3.7-3.5-6.7C92.1,158,82.1,178,71.3,199.5c-3.8-22.6-14.9-38.4-33-50.1c21.3-42.6,42.5-85,64.3-128.6
	C141.6,99.1,180.2,176.3,219.9,255.7z"/>
<text transform="matrix(1 0 0 1 69 312.9092)" class="st0 st1 st2">A    R    I    S    S</text>
</svg>
